<svg xmlns="http://www.w3.org/2000/svg" viewBox="0 0 24 24">
  <defs>
    <style>
      .cls-1 {
        fill: none;
      }

      .cls-2, .cls-4 {
        fill: #01cccc;
      }

      .cls-2 {
        font-size: 19px;
        font-family: Lato-Medium, Lato;
        font-weight: 500;
      }

      .cls-3, .cls-4 {
        stroke: none;
      }
    </style>
  </defs>
  <g id="Symbol_1_19" data-name="Symbol 1 – 19" transform="translate(-149.079 -382.691)">
    <g id="btn" transform="translate(96.079 384.691)">
      <g id="Path_785" data-name="Path 785" class="cls-1" transform="translate(53 -2)">
        <path class="cls-3" d="M12,0A12,12,0,1,1,0,12,12,12,0,0,1,12,0Z"/>
        <path class="cls-4" d="M 12 23 C 14.93820953369141 23 17.7005500793457 21.85580062866211 19.77817916870117 19.77817916870117 C 21.85580062866211 17.7005500793457 23 14.93820953369141 23 12 C 23 9.061790466308594 21.85580062866211 6.299449920654297 19.77817916870117 4.221819877624512 C 17.7005500793457 2.144200086593628 14.93820953369141 1 12 1 C 9.061790466308594 1 6.299449920654297 2.144200086593628 4.221819877624512 4.221819877624512 C 2.144200086593628 6.299449920654297 1 9.061790466308594 1 12 C 1 14.93820953369141 2.144200086593628 17.7005500793457 4.221819877624512 19.77817916870117 C 6.299449920654297 21.85580062866211 9.061790466308594 23 12 23 M 12 24 C 5.372580051422119 24 -1.77635683940025e-15 18.62742042541504 -1.77635683940025e-15 12 C -1.77635683940025e-15 5.372580051422119 5.372580051422119 -1.77635683940025e-15 12 -1.77635683940025e-15 C 18.62742042541504 -1.77635683940025e-15 24 5.372580051422119 24 12 C 24 18.62742042541504 18.62742042541504 24 12 24 Z"/>
      </g>
    </g>
    <text id="_" data-name="+" class="cls-2" transform="translate(161.079 401.691)"><tspan x="-5.51" y="0">+</tspan></text>
  </g>
</svg>
