<svg xmlns="http://www.w3.org/2000/svg" viewBox="0 0 44.843 43.246">
  <defs>
    <style>
      .cls-1 {
        fill: #de009e;
      }
    </style>
  </defs>
  <g id="Group_462" data-name="Group 462" transform="translate(0 -0.754)">
    <path id="Path_970" data-name="Path 970" class="cls-1" d="M9.6,24.7a9.6,9.6,0,1,0,9.6,9.6,9.6,9.6,0,0,0-9.6-9.6Zm0,17.6a8,8,0,1,1,8-8,8.024,8.024,0,0,1-8,8Zm0,0"/>
    <path id="Path_971" data-name="Path 971" class="cls-1" d="M14.4,33.5h-4v-4a.86.86,0,0,0-.8-.8.86.86,0,0,0-.8.8v4.8a.86.86,0,0,0,.8.8h4.8a.8.8,0,1,0,0-1.6Zm0,0"/>
    <path id="Path_972" data-name="Path 972" class="cls-1" d="M44.3,33.4c-1.6-3-7.2-6.3-7.4-6.5a3.69,3.69,0,0,0-3-.5,2.76,2.76,0,0,0-1.6,1.2,18.087,18.087,0,0,1-2.1,2.3c-1.9,1.3-3.4,1.1-5-.5L16,20.3c-1.6-1.6-1.8-3.1-.5-5,.2-.2,1.3-1.3,2.3-2.1A2.76,2.76,0,0,0,19,11.6a4.123,4.123,0,0,0-.5-3c-.1-.2-3.4-5.8-6.5-7.4a3.948,3.948,0,0,0-4.6.7l-2,2C.6,8.7.4,14.6,5,21a.791.791,0,1,0,1.3-.9c-4.1-5.8-4-10.7.3-15l2-2a2.4,2.4,0,0,1,2.8-.4C14,4,17.1,9.4,17.2,9.4a2.5,2.5,0,0,1,.4,1.8,1.794,1.794,0,0,1-.5.7L17,12a21.009,21.009,0,0,0-2.6,2.4,6.7,6.7,0,0,0-1,2.1,11.169,11.169,0,0,1-1.2-3.9.748.748,0,0,0-.9-.7.748.748,0,0,0-.7.9,14.842,14.842,0,0,0,5.1,9.3h.1l8.5,8.5.1.1a.1.1,0,0,0,.1.1A15.838,15.838,0,0,0,33.8,35h.1a.773.773,0,0,0,.8-.7.961.961,0,0,0-.7-.9,16.476,16.476,0,0,1-4.4-1.2,10.665,10.665,0,0,0,1.9-.9,20.5,20.5,0,0,0,2.4-2.6l.1-.1c.2-.3.4-.5.7-.5a2.6,2.6,0,0,1,1.8.4c1.5.9,5.7,3.6,6.8,5.8a2.443,2.443,0,0,1-.4,2.8l-2,2c-4.3,4.3-9.4,4.4-15.2.1a.791.791,0,1,0-.9,1.3c3.1,2.3,6.2,3.5,9,3.5A11.139,11.139,0,0,0,42,40.3l2-2a4.794,4.794,0,0,0,.3-4.9Zm0,0"/>
  </g>
</svg>
